<svg width="14" height="14" viewBox="0 0 14 14" fill="none" xmlns="http://www.w3.org/2000/svg">
<path d="M7 0.333374C6.12452 0.333374 5.25761 0.505812 4.44877 0.840844C3.63993 1.17588 2.90501 1.66694 2.28595 2.286C1.03571 3.53624 0.333328 5.23193 0.333328 7.00004C0.333328 8.76815 1.03571 10.4638 2.28595 11.7141C2.90501 12.3331 3.63993 12.8242 4.44877 13.1592C5.25761 13.4943 6.12452 13.6667 7 13.6667C8.76811 13.6667 10.4638 12.9643 11.714 11.7141C12.9643 10.4638 13.6667 8.76815 13.6667 7.00004C13.6667 6.12456 13.4942 5.25766 13.1592 4.44882C12.8242 3.63998 12.3331 2.90505 11.714 2.286C11.095 1.66694 10.3601 1.17588 9.55122 0.840844C8.74238 0.505812 7.87547 0.333374 7 0.333374ZM9.8 9.80004L6.33333 7.66671V3.66671H7.33333V7.13337L10.3333 8.93337L9.8 9.80004Z" fill="#C4C4C4"/>
</svg>
